HIERARCHY
ROOT joint_Root
{
	OFFSET 0.0 0.0 0.0
	CHANNELS 6 Xposition Yposition Zposition Zrotation Xrotation Yrotation 
	JOINT Hips
	{
		OFFSET 4.5925 91.4895 -427.239
		CHANNELS 6 Xposition Yposition Zposition Zrotation Xrotation Yrotation 
		JOINT Spine
		{
			OFFSET 15.7357 0.0 0.0
			CHANNELS 6 Xposition Yposition Zposition Zrotation Xrotation Yrotation 
			JOINT Chest
			{
				OFFSET 8.98455 -0.406207 0.0
				CHANNELS 6 Xposition Yposition Zposition Zrotation Xrotation Yrotation 
				JOINT Neck
				{
					OFFSET 16.3773 0.0 0.0
					CHANNELS 6 Xposition Yposition Zposition Zrotation Xrotation Yrotation 
					JOINT Head
					{
						OFFSET 6.45672 0.0 0.0
						CHANNELS 6 Xposition Yposition Zposition Zrotation Xrotation Yrotation 
						End Site
						{
							OFFSET 0.0 0.0 0.0
						}
					}
				}
				JOINT Shoulder_L
				{
					OFFSET 12.9942 -0.242716 4.98039
					CHANNELS 6 Xposition Yposition Zposition Zrotation Xrotation Yrotation 
					JOINT UpperArm_L
					{
						OFFSET 5.34809 0.0 0.0
						CHANNELS 6 Xposition Yposition Zposition Zrotation Xrotation Yrotation 
						JOINT LowerArm_L
						{
							OFFSET 24.3286 1.87007e-05 0.0
							CHANNELS 6 Xposition Yposition Zposition Zrotation Xrotation Yrotation 
							JOINT Hand_L
							{
								OFFSET 22.2916 0.0 0.0
								CHANNELS 6 Xposition Yposition Zposition Zrotation Xrotation Yrotation 
								End Site
								{
									OFFSET 0.0 0.0 0.0
								}
							}
						}
					}
				}
				JOINT Shoulder_R
				{
					OFFSET 12.9945 -0.242716 -4.98039
					CHANNELS 6 Xposition Yposition Zposition Zrotation Xrotation Yrotation 
					JOINT UpperArm_R
					{
						OFFSET -5.34813 0.0 0.0
						CHANNELS 6 Xposition Yposition Zposition Zrotation Xrotation Yrotation 
						JOINT LowerArm_R
						{
							OFFSET -24.3289 0.000322201 0.0
							CHANNELS 6 Xposition Yposition Zposition Zrotation Xrotation Yrotation 
							JOINT Hand_R
							{
								OFFSET -22.2915 -0.000108084 0.0
								CHANNELS 6 Xposition Yposition Zposition Zrotation Xrotation Yrotation 
								End Site
								{
									OFFSET 0.0 0.0 0.0
								}
							}
						}
					}
				}
			}
		}
		JOINT UpperLeg_L
		{
			OFFSET -2.19248 -6.46944 0.0
			CHANNELS 6 Xposition Yposition Zposition Zrotation Xrotation Yrotation 
			JOINT LowerLeg_L
			{
				OFFSET 39.0811 0.0 -1.23785e-05
				CHANNELS 6 Xposition Yposition Zposition Zrotation Xrotation Yrotation 
				JOINT Foot_L
				{
					OFFSET 40.9854 0.0 -1.26872e-05
					CHANNELS 6 Xposition Yposition Zposition Zrotation Xrotation Yrotation 
					JOINT Toes_L
					{
						OFFSET 11.7543 0.0 0.0
						CHANNELS 6 Xposition Yposition Zposition Zrotation Xrotation Yrotation 
						End Site
						{
							OFFSET 0.0 0.0 0.0
						}
					}
				}
			}
		}
		JOINT UpperLeg_R
		{
			OFFSET -2.19251 6.46944 0.0
			CHANNELS 6 Xposition Yposition Zposition Zrotation Xrotation Yrotation 
			JOINT LowerLeg_R
			{
				OFFSET -39.0811 -0.00228153 -0.0401928
				CHANNELS 6 Xposition Yposition Zposition Zrotation Xrotation Yrotation 
				JOINT Foot_R
				{
					OFFSET -40.9854 0.0 0.0
					CHANNELS 6 Xposition Yposition Zposition Zrotation Xrotation Yrotation 
					JOINT Toes_R
					{
						OFFSET -11.7543 0.0 0.0
						CHANNELS 6 Xposition Yposition Zposition Zrotation Xrotation Yrotation 
						End Site
						{
							OFFSET 0.0 0.0 0.0
						}
					}
				}
			}
		}
	}
}
MOTION
Frames:	8
Frame Time:	0.0333333
0.000000 0.000000 0.000000 0.000000 0.000000 -0.000000 -5.112730 79.851100 -1.195680 85.471900 -6.369950 13.821100 15.735700 0.000005 -0.000001 81.590000 78.785500 -81.470300 8.984550 -0.406207 -0.000000 14.441800 -3.233410 0.649334 16.377300 -0.000001 -0.000001 -4.028060 -0.398663 2.065800 6.456720 -0.000001 -0.000000 -6.050450 4.695030 -4.406790 12.994200 -0.242716 4.980390 -90.515000 1.820470 -74.203000 5.348090 -0.000007 -0.000001 -64.268800 25.819800 -9.327440 24.328600 0.000019 0.000005 8.744230 12.623400 -35.137500 22.291600 -0.000001 0.000005 13.525800 5.190330 2.958280 12.994500 -0.242716 -4.980390 87.814200 11.540400 -79.198700 -5.348130 -0.000001 -0.000004 -64.117900 19.290600 -13.319700 -24.328900 0.000322 -0.000009 -7.224620 -20.451300 -19.937400 -22.291500 -0.000108 -0.000004 8.187400 5.263240 1.197390 -2.192480 -6.469440 -0.000000 -164.374000 -12.600400 -13.829100 39.081100 -0.000007 -0.000012 -0.623409 0.247451 68.351600 40.985400 -0.000006 -0.000013 -1.551270 7.739170 -88.776100 11.754300 -0.000000 0.000003 -0.000276 -0.002428 -16.668300 -2.192510 6.469440 -0.000001 -175.391000 9.211630 165.997000 -39.081100 -0.002282 -0.040193 0.103771 -0.042414 67.144400 -40.985400 0.000008 0.000006 10.340200 0.291744 -88.967200 -11.754300 -0.000006 -0.000006 -0.161102 -0.206677 -17.266800
0.000000 0.000000 0.000000 0.000000 0.000000 -0.000000 -5.898280 81.717400 -0.536383 85.343600 -4.347390 13.491600 15.735700 0.000005 -0.000001 81.873600 79.787400 -83.115500 8.984550 -0.406207 -0.000000 12.434900 -2.910850 -2.166680 16.377300 -0.000001 -0.000001 -3.686990 -0.210644 1.017320 6.456720 -0.000001 -0.000000 -5.460210 3.791050 -3.139960 12.994200 -0.242716 4.980390 -90.559700 1.869400 -73.328100 5.348090 -0.000007 -0.000001 -63.958200 22.244100 -9.033770 24.328600 0.000019 0.000005 7.609580 11.641300 -33.507200 22.291600 -0.000001 0.000005 14.487700 5.168210 3.503630 12.994500 -0.242716 -4.980390 87.898000 10.417500 -78.524900 -5.348130 -0.000001 -0.000004 -62.878100 15.417800 -10.979900 -24.328900 0.000322 -0.000009 -4.514360 -20.197100 -12.876700 -22.291500 -0.000108 -0.000004 -0.261219 5.142020 4.171330 -2.192480 -6.469440 -0.000000 -164.206000 -11.229300 -11.780900 39.081100 -0.000007 -0.000012 -0.566873 0.286363 63.200100 40.985400 -0.000006 -0.000013 -1.982610 8.502500 -86.340600 11.754300 -0.000000 0.000003 -0.000235 -0.002119 -16.657100 -2.192510 6.469440 -0.000001 -175.319000 11.306800 168.846000 -39.081100 -0.002282 -0.040193 0.102538 -0.053159 61.850100 -40.985400 0.000008 0.000006 10.627600 0.639650 -86.882800 -11.754300 -0.000006 -0.000006 -0.249829 -0.314196 -17.398900
0.000000 0.000000 0.000000 0.000000 0.000000 -0.000000 -6.444550 84.233300 0.089658 85.539100 -2.136910 12.084500 15.735700 0.000005 -0.000001 80.098500 81.216300 -82.996400 8.984550 -0.406207 -0.000000 9.478780 -3.046750 -5.539380 16.377300 -0.000001 -0.000001 -2.561210 0.125567 0.200791 6.456720 -0.000001 -0.000000 -5.003970 3.182260 -1.673950 12.994200 -0.242716 4.980390 -90.501000 1.577160 -72.372800 5.348090 -0.000007 -0.000001 -63.659400 18.131200 -7.398850 24.328600 0.000019 0.000005 6.200930 9.549680 -33.221500 22.291600 -0.000001 0.000005 14.841100 5.175120 3.335460 12.994500 -0.242716 -4.980390 88.258300 8.182430 -77.939000 -5.348130 -0.000001 -0.000004 -59.015700 6.607570 -10.839400 -24.328900 0.000322 -0.000009 -1.717540 -20.572600 -4.872610 -22.291500 -0.000108 -0.000004 -1.669650 5.043910 6.355490 -2.192480 -6.469440 -0.000000 -164.802000 -10.299600 -9.793450 39.081100 -0.000007 -0.000012 -0.497475 0.338980 55.730500 40.985400 -0.000006 -0.000013 -2.339240 9.203730 -82.663100 11.754300 -0.000000 0.000003 -0.000189 -0.001765 -16.644200 -2.192510 6.469440 -0.000001 -175.433000 12.952900 171.506000 -39.081100 -0.002282 -0.040193 0.092551 -0.064026 54.366800 -40.985400 0.000008 0.000006 10.433200 1.152380 -83.425900 -11.754300 -0.000006 -0.000006 -0.251873 -0.320221 -17.701200
0.000000 0.000000 0.000000 0.000000 0.000000 -0.000000 -6.727560 86.783700 0.547196 85.764200 -0.351711 9.607690 15.735700 0.000005 -0.000001 75.929700 82.938500 -80.308300 8.984550 -0.406207 -0.000000 5.827930 -3.351060 -8.577950 16.377300 -0.000001 -0.000001 -0.952749 0.338766 -0.594881 6.456720 -0.000001 -0.000000 -4.543180 2.898960 -0.334568 12.994200 -0.242716 4.980390 -90.424700 1.264960 -71.441100 5.348090 -0.000007 -0.000001 -62.981400 14.540200 -5.439180 24.328600 0.000019 0.000005 5.117310 7.941730 -32.948400 22.291600 -0.000001 0.000005 14.461800 5.186810 3.047680 12.994500 -0.242716 -4.980390 88.776600 5.353900 -77.104500 -5.348130 -0.000001 -0.000004 -52.168600 -8.469280 -13.595500 -24.328900 0.000322 -0.000009 -0.000428 -19.769100 -0.000110 -22.291500 -0.000108 -0.000004 4.747590 4.910330 9.117190 -2.192480 -6.469440 -0.000000 -165.667000 -10.154400 -8.350560 39.081100 -0.000007 -0.000012 -0.396244 0.366212 47.256500 40.985400 -0.000006 -0.000013 -2.665990 9.830750 -78.377500 11.754300 -0.000000 0.000003 -0.000139 -0.001359 -16.629300 -2.192510 6.469440 -0.000001 -175.506000 14.674300 173.349000 -39.081100 -0.002282 -0.040193 0.075979 -0.070347 45.949200 -40.985400 0.000008 0.000006 10.176200 2.460720 -79.180300 -11.754300 -0.000006 -0.000006 -0.378249 -0.472003 -18.048500
0.000000 0.000000 0.000000 0.000000 0.000000 -0.000000 -6.629860 88.759700 0.844875 85.898200 0.636240 7.226710 15.735700 0.000005 -0.000001 71.605200 84.464800 -76.752700 8.984550 -0.406207 -0.000000 2.617010 -3.259830 -10.211600 16.377300 -0.000001 -0.000001 0.377475 0.358305 -1.701810 6.456720 -0.000001 -0.000000 -3.883360 2.847140 -0.245998 12.994200 -0.242716 4.980390 -90.528100 1.500690 -70.610900 5.348090 -0.000007 -0.000001 -62.308300 12.191700 -4.242230 24.328600 0.000019 0.000005 4.946530 8.069320 -31.657800 22.291600 -0.000001 0.000005 14.247500 5.186030 3.067170 12.994500 -0.242716 -4.980390 89.411000 2.450600 -76.481000 -5.348130 -0.000001 -0.000004 -41.256700 -22.434200 -18.379500 -24.328900 0.000322 -0.000009 -0.002417 -25.285300 -0.000142 -22.291500 -0.000108 -0.000004 10.675500 4.920480 8.975670 -2.192480 -6.469440 -0.000000 -166.574000 -10.316500 -7.106530 39.081100 -0.000007 -0.000012 -0.312157 0.375662 39.725600 40.985400 -0.000006 -0.000013 -2.936590 9.955950 -74.622700 11.754300 -0.000000 0.000003 -0.000138 -0.001353 -16.629100 -2.192510 6.469440 -0.000001 -175.986000 17.273000 174.778000 -39.081100 -0.002282 -0.040193 0.057995 -0.068583 38.581700 -40.985400 0.000008 0.000006 9.947340 5.494110 -75.293500 -11.754300 -0.000006 -0.000006 -0.410940 -0.513597 -18.658600
0.000000 0.000000 0.000000 0.000000 0.000000 -0.000000 -6.212960 89.976300 1.034320 86.068600 0.725325 5.626490 15.735700 0.000005 -0.000001 69.648000 85.477800 -74.917200 8.984550 -0.406207 -0.000000 0.607430 -2.816100 -10.516800 16.377300 -0.000001 -0.000001 1.045920 0.689455 -2.701890 6.456720 -0.000001 -0.000000 -3.574690 3.072290 -0.727599 12.994200 -0.242716 4.980390 -90.788500 2.149310 -69.849900 5.348090 -0.000007 -0.000001 -61.849800 10.532800 -3.854530 24.328600 0.000019 0.000005 5.333530 9.254660 -30.136300 22.291600 -0.000001 0.000005 14.078100 5.168250 3.503680 12.994500 -0.242716 -4.980390 90.275700 -1.223540 -77.264600 -5.348130 -0.000001 -0.000004 -27.762400 -34.876100 -21.576800 -24.328900 0.000322 -0.000009 -1.771580 -34.622600 -3.100120 -22.291500 -0.000108 -0.000004 8.393690 5.133010 4.298280 -2.192480 -6.469440 -0.000000 -167.476000 -10.594100 -5.959250 39.081100 -0.000007 -0.000012 -0.260589 0.380500 34.406200 40.985400 -0.000006 -0.000013 -3.032700 9.611440 -72.101700 11.754300 -0.000000 0.000003 -0.000114 -0.001148 -16.621500 -2.192510 6.469440 -0.000001 -176.889000 19.788700 175.996000 -39.081100 -0.002282 -0.040193 0.040482 -0.056416 33.391300 -40.985400 0.000008 0.000006 9.548530 9.384980 -72.733900 -11.754300 -0.000006 -0.000006 -0.375340 -0.475258 -19.025100
0.000000 0.000000 0.000000 0.000000 0.000000 -0.000000 -5.812850 90.618900 0.947422 86.311100 0.555701 4.441180 15.735700 0.000005 -0.000001 68.655500 86.104500 -73.656600 8.984550 -0.406207 -0.000000 -0.597338 -2.470800 -10.010500 16.377300 -0.000001 -0.000001 1.152330 0.929018 -2.470120 6.456720 -0.000001 -0.000000 -3.787210 3.494650 -1.791260 12.994200 -0.242716 4.980390 -91.092400 2.885790 -69.257600 5.348090 -0.000007 -0.000001 -61.501800 9.139090 -3.564130 24.328600 0.000019 0.000005 5.444000 9.892560 -29.018100 22.291600 -0.000001 0.000005 13.844600 5.160390 3.693570 12.994500 -0.242716 -4.980390 91.513300 -7.149960 -78.016700 -5.348130 -0.000001 -0.000004 -14.292900 -44.469300 -21.307400 -24.328900 0.000322 -0.000009 -10.266700 -40.867700 -15.467900 -22.291500 -0.000108 -0.000004 9.472080 5.338060 -0.942027 -2.192480 -6.469440 -0.000000 -168.241000 -11.289600 -5.625820 39.081100 -0.000007 -0.000012 -0.226535 0.372094 31.333900 40.985400 -0.000006 -0.000013 -2.891580 9.685200 -70.535100 11.754300 -0.000000 0.000003 -0.000113 -0.001141 -16.621200 -2.192510 6.469440 -0.000001 -177.393000 21.160100 176.502000 -39.081100 -0.002282 -0.040193 0.029535 -0.045301 30.074700 -40.985400 0.000008 0.000006 9.473650 11.560800 -71.609200 -11.754300 -0.000006 -0.000006 -0.067854 -0.127050 -18.861100
0.000000 0.000000 0.000000 0.000000 0.000000 -0.000000 -5.530970 90.914600 0.665376 86.785700 0.659780 3.595450 15.735700 0.000005 -0.000001 68.987800 86.389500 -73.724200 8.984550 -0.406207 -0.000000 -1.099480 -2.222830 -9.491090 16.377300 -0.000001 -0.000001 1.249850 0.132673 -0.072640 6.456720 -0.000001 -0.000000 -4.534850 4.249180 -3.863510 12.994200 -0.242716 4.980390 -91.111400 2.922060 -69.165400 5.348090 -0.000007 -0.000001 -61.591700 8.104730 -3.533140 24.328600 0.000019 0.000005 5.495170 10.258600 -28.377700 22.291600 -0.000001 0.000005 14.036800 5.149810 3.947010 12.994500 -0.242716 -4.980390 93.122200 -12.972000 -76.347900 -5.348130 -0.000001 -0.000004 -2.372710 -54.421700 -20.104500 -24.328900 0.000322 -0.000009 -18.785800 -33.528700 -31.656100 -22.291500 -0.000108 -0.000004 18.407500 5.501590 -6.360670 -2.192480 -6.469440 -0.000000 -169.051000 -12.244500 -5.927700 39.081100 -0.000007 -0.000012 -0.200369 0.349754 29.808100 40.985400 -0.000006 -0.000013 -2.578300 10.377300 -69.540900 11.754300 -0.000000 0.000003 -0.000108 -0.001097 -16.619600 -2.192510 6.469440 -0.000001 -177.593000 21.267300 176.460000 -39.081100 -0.002282 -0.040193 0.027740 -0.045650 28.158000 -40.985400 0.000008 0.000006 9.816860 11.428100 -71.565600 -11.754300 -0.000006 -0.000006 -0.004435 -0.055885 -18.846600
